<svg width="20" height="18" viewBox="0 0 20 18" fill="none" xmlns="http://www.w3.org/2000/svg">
<path fill-rule="evenodd" clip-rule="evenodd" d="M1.9122 8.38472C2.98483 8.38472 3.84168 8.35132 3.84168 7.41681L3.8365 6.92585C3.8365 6.92585 3.57093 5.53425 5.70195 5.53425L14.331 5.58617V7.57143C14.7494 7.93485 15.4282 7.93485 15.8467 7.57143L19.1799 4.66859C19.597 4.30291 19.597 3.71151 19.1799 3.34809L15.8467 0.272565C15.4282 -0.0908549 14.7494 -0.0908549 14.331 0.272565V2.35489C14.1224 2.30185 5.97141 2.27137 5.97141 2.27137C1.16397 2.27137 0.112061 5.01282 0.112061 6.11663V7.28025C0.112061 8.21475 0.839558 8.38472 1.9122 8.38472Z" fill="#919191"/>
<path fill-rule="evenodd" clip-rule="evenodd" d="M17.6427 9.55942C16.5701 9.55942 15.607 9.67859 15.607 10.6131L15.6096 11.6932C15.5513 12.0961 14.774 12.3591 13.634 12.3591H5.16304L5.16045 10.5996C4.74331 10.2361 4.06449 10.2361 3.64477 10.5996L0.312853 13.5024C-0.104284 13.8681 -0.104284 14.4595 0.312853 14.8229L3.64477 17.7257C4.06449 18.0914 4.74331 18.0914 5.16045 17.7257L5.16304 15.6366H13.634C18.4415 15.6366 19.4934 12.8805 19.4934 11.7756V10.612C19.4934 9.67859 18.7154 9.55942 17.6427 9.55942Z" fill="#919191"/>
</svg>
