<svg width="44" height="36" viewBox="0 0 44 36" fill="none" xmlns="http://www.w3.org/2000/svg">
<rect y="0.5" width="44" height="35" rx="10" fill="#EEEEEE"/>
<g clip-path="url(#clip0_25_4660)">
<path d="M31.9769 17.296C31.8097 14.77 30.6972 12.4251 28.8439 10.6931C26.9858 8.9564 24.5552 8 21.9999 8C19.4445 8 17.0139 8.95644 15.1557 10.6932C13.3026 12.4252 12.1901 14.7701 12.0232 17.2962C12.0219 17.3162 12.0212 17.3361 12.0212 17.3561V19.8355C12.0212 20.3366 12.4274 20.7427 12.9284 20.7427C13.4293 20.7427 13.8355 20.3366 13.8355 19.8355V17.3868C14.1314 13.138 17.712 9.81433 21.9999 9.81433C26.2876 9.81433 29.8683 13.138 30.1644 17.3867V19.8355C30.1644 20.3366 30.5706 20.7427 31.0716 20.7427C31.5725 20.7427 31.9787 20.3366 31.9787 19.8355V17.356C31.9788 17.336 31.9781 17.316 31.9769 17.296Z" fill="#0A0A0A"/>
<path d="M31.9768 17.296C31.8097 14.77 30.6971 12.4251 28.8439 10.6931C26.9858 8.95644 24.5552 8 22 8V9.81433C26.2877 9.81441 29.8683 13.138 30.1645 17.3867V19.8355C30.1645 20.3366 30.5706 20.7427 31.0716 20.7427C31.5726 20.7427 31.9788 20.3366 31.9788 19.8355V17.356C31.9788 17.336 31.9781 17.316 31.9768 17.296Z" fill="#0A0A0A"/>
<path d="M17.6703 19.3044C17.5573 18.9319 16.9845 18.9284 16.5751 18.9284H12.9465C12.4454 18.9284 12.0393 19.3346 12.0393 19.8356L12.0393 26.4881C12.0393 26.9891 12.8214 28 13.3224 28L16.5751 28C16.9845 28 17.5393 27.9379 17.6523 27.5653C18.0248 27.4524 18.087 26.8974 18.087 26.4881V20.4403C18.0871 20.0309 18.0428 19.4172 17.6703 19.3044Z" fill="#0A0A0A"/>
<path d="M31.0717 18.9283H27.4431C27.0336 18.9283 26.4609 18.9318 26.3479 19.3043C25.9754 19.4172 25.9312 20.0308 25.9312 20.4403V26.4881C25.9312 26.8975 25.9754 27.4523 26.3479 27.5652C26.4608 27.9377 27.0336 28 27.4431 28L30.2609 28C30.7619 28 31.9789 26.9891 31.9789 26.4881V19.8355C31.9789 19.3345 31.5726 18.9283 31.0717 18.9283Z" fill="#0A0A0A"/>
</g>
<defs>
<clipPath id="clip0_25_4660">
<rect width="20" height="20" fill="white" transform="translate(12 8)"/>
</clipPath>
</defs>
</svg>
